<svg width="109" height="49" viewBox="0 0 109 49" fill="none" xmlns="http://www.w3.org/2000/svg">
<path d="M12.2344 10.4941V17.2441C12.0645 17.25 11.8945 17.2764 11.7246 17.3232C11.5547 17.3701 11.3408 17.4375 11.083 17.5254C10.5205 17.7129 9.96387 17.8623 9.41309 17.9736C8.8623 18.085 8.15625 18.1406 7.29492 18.1406C5.96484 18.1406 4.80762 17.874 3.82324 17.3408C2.83887 16.8018 2.08008 16.0254 1.54688 15.0117C1.01367 13.998 0.74707 12.7881 0.74707 11.3818C0.74707 9.79395 1.0459 8.4873 1.64355 7.46191C2.24707 6.43066 3.06445 5.67773 4.0957 5.20312C5.13281 4.72266 6.3252 4.48242 7.67285 4.48242C8.34082 4.48242 8.89453 4.51465 9.33398 4.5791C9.7793 4.64355 10.2773 4.7373 10.8281 4.86035C11.1328 4.93066 11.3613 4.98047 11.5137 5.00977L11.4258 7.80469C10.5117 7.33594 9.30469 7.10156 7.80469 7.10156C7.03711 7.10156 6.38086 7.2627 5.83594 7.58496C5.29102 7.90723 4.875 8.37305 4.58789 8.98242C4.30664 9.58594 4.16602 10.3066 4.16602 11.1445C4.16602 12.0176 4.2832 12.7939 4.51758 13.4736C4.75781 14.1533 5.10938 14.6865 5.57227 15.0732C6.03516 15.4541 6.5918 15.6445 7.24219 15.6445C8.07422 15.6445 8.71875 15.5508 9.17578 15.3633V13.0254L7.26855 12.8848V10.4941H12.2344ZM14.0713 11.2412C14.1123 8.97363 14.7041 7.29492 15.8467 6.20508C16.9893 5.11523 18.5449 4.54102 20.5137 4.48242C21.7676 4.44727 22.8486 4.70508 23.7568 5.25586C24.6709 5.80078 25.3652 6.5918 25.8398 7.62891C26.3145 8.66602 26.54 9.8877 26.5166 11.2939C26.4873 12.8584 26.2031 14.1504 25.6641 15.1699C25.125 16.1895 24.3809 16.9395 23.4316 17.4199C22.4824 17.9004 21.3662 18.1406 20.083 18.1406C18.8174 18.1406 17.7275 17.8594 16.8135 17.2969C15.8994 16.7285 15.208 15.9258 14.7393 14.8887C14.2705 13.8516 14.0479 12.6357 14.0713 11.2412ZM23.0713 11.1973C23.0713 9.90234 22.8516 8.87988 22.4121 8.12988C21.9727 7.37402 21.3193 6.99609 20.4521 6.99609C19.5615 6.99609 18.8496 7.33594 18.3164 8.01562C17.7832 8.69531 17.5166 9.80273 17.5166 11.3379C17.5166 12.1992 17.6191 12.958 17.8242 13.6143C18.0352 14.2646 18.3486 14.7744 18.7646 15.1436C19.1865 15.5068 19.7021 15.6885 20.3115 15.6885C21.2021 15.6885 21.8848 15.3311 22.3594 14.6162C22.834 13.8955 23.0713 12.7559 23.0713 11.1973ZM28.1689 11.2412C28.21 8.97363 28.8018 7.29492 29.9443 6.20508C31.0869 5.11523 32.6426 4.54102 34.6113 4.48242C35.8652 4.44727 36.9463 4.70508 37.8545 5.25586C38.7686 5.80078 39.4629 6.5918 39.9375 7.62891C40.4121 8.66602 40.6377 9.8877 40.6143 11.2939C40.585 12.8584 40.3008 14.1504 39.7617 15.1699C39.2227 16.1895 38.4785 16.9395 37.5293 17.4199C36.5801 17.9004 35.4639 18.1406 34.1807 18.1406C32.915 18.1406 31.8252 17.8594 30.9111 17.2969C29.9971 16.7285 29.3057 15.9258 28.8369 14.8887C28.3682 13.8516 28.1455 12.6357 28.1689 11.2412ZM37.1689 11.1973C37.1689 9.90234 36.9492 8.87988 36.5098 8.12988C36.0703 7.37402 35.417 6.99609 34.5498 6.99609C33.6592 6.99609 32.9473 7.33594 32.4141 8.01562C31.8809 8.69531 31.6143 9.80273 31.6143 11.3379C31.6143 12.1992 31.7168 12.958 31.9219 13.6143C32.1328 14.2646 32.4463 14.7744 32.8623 15.1436C33.2842 15.5068 33.7998 15.6885 34.4092 15.6885C35.2998 15.6885 35.9824 15.3311 36.457 14.6162C36.9316 13.8955 37.1689 12.7559 37.1689 11.1973ZM44.2002 4.62305C44.3408 4.62305 44.7744 4.60547 45.501 4.57031C46.4971 4.51172 47.2852 4.48242 47.8652 4.48242C50.0859 4.48242 51.7354 5.03906 52.8135 6.15234C53.8916 7.26563 54.4307 8.87402 54.4307 10.9775C54.4307 12.4834 54.1641 13.7725 53.6309 14.8447C53.1035 15.917 52.3359 16.7344 51.3281 17.2969C50.3203 17.8594 49.1104 18.1406 47.6982 18.1406C47.124 18.1406 46.4619 18.1143 45.7119 18.0615C45.583 18.0557 45.3516 18.0439 45.0176 18.0264C44.6836 18.0088 44.3936 18 44.1475 18H42.9697V4.62305H44.2002ZM47.8652 15.6709C48.832 15.665 49.5879 15.2988 50.1328 14.5723C50.6777 13.8457 50.9502 12.7471 50.9502 11.2764C50.9502 10.21 50.833 9.35742 50.5986 8.71875C50.3701 8.07422 50.0186 7.61133 49.5439 7.33008C49.0752 7.04297 48.4688 6.89941 47.7246 6.89941C47.5137 6.89941 47.2734 6.91113 47.0039 6.93457C46.7344 6.95801 46.5117 6.98438 46.3359 7.01367V15.5391C46.6406 15.627 47.1504 15.6709 47.8652 15.6709ZM7.59375 27.4824C8.2207 27.4824 8.74219 27.5176 9.1582 27.5879C9.57422 27.6582 10.0225 27.7549 10.5029 27.8779C10.8311 27.96 11.0273 28.0068 11.0918 28.0186L10.6523 30.9102C10.3418 30.6992 9.97266 30.5176 9.54492 30.3652C9.12305 30.2129 8.56348 30.1367 7.86621 30.1367C7.1748 30.1367 6.55371 30.292 6.00293 30.6025C5.45215 30.9131 5.01562 31.3701 4.69336 31.9736C4.37695 32.5771 4.21875 33.2979 4.21875 34.1357C4.21875 35.0264 4.3623 35.8027 4.64941 36.4648C4.93652 37.127 5.36426 37.6426 5.93262 38.0117C6.50098 38.375 7.19238 38.5566 8.00684 38.5566C8.36426 38.5566 8.73926 38.5127 9.13184 38.4248C9.52441 38.3369 9.87891 38.2256 10.1953 38.0908C10.5176 37.9561 10.7549 37.8242 10.9072 37.6953L10.916 40.4375C10.4121 40.6484 9.9082 40.8184 9.4043 40.9473C8.90625 41.0762 8.31445 41.1406 7.62891 41.1406C6.17578 41.1406 4.93359 40.8652 3.90234 40.3145C2.87109 39.7578 2.08594 38.9697 1.54688 37.9502C1.01367 36.9248 0.74707 35.7207 0.74707 34.3379C0.74707 32.873 1.0459 31.6279 1.64355 30.6025C2.24121 29.5713 3.05566 28.7949 4.08691 28.2734C5.12402 27.7461 6.29297 27.4824 7.59375 27.4824ZM16.3652 27.623V33.0459H20.9531V27.623H24.293V41H20.9531V35.4541H16.3652V41H12.999V27.623H16.3652ZM30.8232 27.623V41H27.4482V27.623H30.8232ZM35.2705 27.623C35.6631 27.623 36.2637 27.5996 37.0723 27.5527C37.916 27.5059 38.5693 27.4824 39.0322 27.4824C40.7197 27.4824 42 27.8516 42.873 28.5898C43.752 29.3223 44.1914 30.5264 44.1914 32.2021C44.1914 33.2568 43.9805 34.1533 43.5586 34.8916C43.1367 35.6299 42.5156 36.1895 41.6953 36.5703C40.875 36.9512 39.873 37.1416 38.6895 37.1416C38.1562 37.1416 37.7021 37.1357 37.3271 37.124V41H33.9697V27.623H35.2705ZM38.6895 34.7422C39.3691 34.7422 39.9082 34.5371 40.3066 34.127C40.7109 33.7168 40.9131 33.0693 40.9131 32.1846C40.9131 31.4521 40.7285 30.875 40.3594 30.4531C39.9961 30.0312 39.4512 29.8203 38.7246 29.8203C38.1738 29.8203 37.708 29.8525 37.3271 29.917V34.6719C37.8193 34.7188 38.2734 34.7422 38.6895 34.7422ZM46.2393 37.7129C46.6084 37.9238 47.1211 38.1201 47.7773 38.3018C48.4395 38.4775 49.0928 38.5654 49.7373 38.5654C50.3818 38.5654 50.8506 38.4775 51.1436 38.3018C51.4365 38.1201 51.583 37.8301 51.583 37.4316C51.583 37.1562 51.498 36.9189 51.3281 36.7197C51.1582 36.5205 50.9062 36.3301 50.5723 36.1484C50.2383 35.9609 49.6699 35.6768 48.8672 35.2959C47.9004 34.8389 47.1357 34.2822 46.5732 33.626C46.0107 32.9697 45.7295 32.1436 45.7295 31.1475C45.7295 30.3564 45.9258 29.6855 46.3184 29.1348C46.7168 28.584 47.2734 28.1709 47.9883 27.8955C48.709 27.6201 49.5469 27.4824 50.502 27.4824C51.3926 27.4824 52.1631 27.5645 52.8135 27.7285C53.4639 27.8867 53.9502 28.0596 54.2725 28.2471L53.7539 30.7607C53.4668 30.5381 53.0391 30.3418 52.4707 30.1719C51.9082 29.9961 51.3486 29.9082 50.792 29.9082C50.1768 29.9082 49.7139 30.0078 49.4033 30.207C49.0986 30.4062 48.9463 30.6816 48.9463 31.0332C48.9463 31.2969 49.0225 31.5312 49.1748 31.7363C49.333 31.9414 49.5732 32.1406 49.8955 32.334C50.2178 32.5215 50.6719 32.75 51.2578 33.0195C52.0957 33.3945 52.7754 33.7666 53.2969 34.1357C53.8242 34.5049 54.2285 34.9355 54.5098 35.4277C54.791 35.9141 54.9316 36.4971 54.9316 37.1768C54.9316 37.9795 54.7412 38.6797 54.3604 39.2773C53.9854 39.8691 53.4316 40.3291 52.6992 40.6572C51.9668 40.9795 51.085 41.1406 50.0537 41.1406C49.4561 41.1406 48.8643 41.0967 48.2783 41.0088C47.6982 40.9209 47.1914 40.8125 46.7578 40.6836C46.3242 40.5547 46.0137 40.4316 45.8262 40.3145L46.2393 37.7129Z" fill="white"/>
<g clip-path="url(#clip0_7:41)">
<path d="M76 40.8976C68.813 40.8976 62.81 36.8026 61.345 30.3096C61.121 30.9706 61 31.8216 61 32.9196C61 41.2036 67.716 46.6426 76 46.6426C84.284 46.6426 91 41.2036 91 32.9196C91 31.8226 90.879 30.9706 90.655 30.3096C89.19 36.8026 83.187 40.8976 76 40.8976Z" fill="#F9DA49"/>
<path d="M91 4.60861C91 12.8926 84.284 18.3316 76 18.3316C67.716 18.3316 61 12.8926 61 4.60861C61 -3.67539 67.716 1.73661 76 1.73661C84.284 1.73661 91 -3.67539 91 4.60861Z" fill="#F9EA80"/>
<path d="M76 18.3316C68.813 18.3316 62.81 14.2366 61.345 7.74359C61.121 8.40459 61 9.25559 61 10.3536C61 18.6376 67.716 24.0766 76 24.0766C84.284 24.0766 91 18.6376 91 10.3536C91 9.25659 90.879 8.40459 90.655 7.74359C89.19 14.2366 83.187 18.3316 76 18.3316Z" fill="#F9DA49"/>
<path d="M76 24.0766C68.813 24.0766 62.81 19.9816 61.345 13.4886C61.121 14.1496 61 15.0006 61 16.0986C61 24.3826 67.716 29.8216 76 29.8216C84.284 29.8216 91 24.3826 91 16.0986C91 15.0016 90.879 14.1496 90.655 13.4886C89.19 19.9816 83.187 24.0766 76 24.0766Z" fill="#F9EA80"/>
<path d="M76 29.8216C68.813 29.8216 62.81 25.7266 61.345 19.2336C61.121 19.8946 61 20.7456 61 21.8436C61 30.1276 67.716 35.5666 76 35.5666C84.284 35.5666 91 30.1276 91 21.8436C91 20.7466 90.879 19.8946 90.655 19.2336C89.19 25.7256 83.187 29.8216 76 29.8216Z" fill="#F9DA49"/>
<path d="M76 35.5656C68.721 35.5656 62.657 31.3646 61.291 24.7246C61.101 25.3616 61 26.1646 61 27.1736C61 35.4576 67.716 40.8966 76 40.8966C84.284 40.8966 91 35.4576 91 27.1736C91 26.1646 90.899 25.3616 90.709 24.7246C89.344 31.3646 83.28 35.5656 76 35.5656Z" fill="#F9EA80"/>
<path d="M70.5 9.99963C71.8807 9.99963 73 8.88035 73 7.49963C73 6.11892 71.8807 4.99963 70.5 4.99963C69.1193 4.99963 68 6.11892 68 7.49963C68 8.88035 69.1193 9.99963 70.5 9.99963Z" fill="#F1B501"/>
<path d="M80.5 12.9996C81.3284 12.9996 82 12.3281 82 11.4996C82 10.6712 81.3284 9.99963 80.5 9.99963C79.6716 9.99963 79 10.6712 79 11.4996C79 12.3281 79.6716 12.9996 80.5 12.9996Z" fill="#F9D70B"/>
<path d="M83 6.99963C83.5523 6.99963 84 6.55192 84 5.99963C84 5.44735 83.5523 4.99963 83 4.99963C82.4477 4.99963 82 5.44735 82 5.99963C82 6.55192 82.4477 6.99963 83 6.99963Z" fill="#EEAF4B"/>
<path d="M75 14.9996C75.5523 14.9996 76 14.5519 76 13.9996C76 13.4473 75.5523 12.9996 75 12.9996C74.4477 12.9996 74 13.4473 74 13.9996C74 14.5519 74.4477 14.9996 75 14.9996Z" fill="#DC9628"/>
<path d="M65 4.99963C65.5523 4.99963 66 4.55192 66 3.99963C66 3.44735 65.5523 2.99963 65 2.99963C64.4477 2.99963 64 3.44735 64 3.99963C64 4.55192 64.4477 4.99963 65 4.99963Z" fill="#F9DA49"/>
<path d="M98.527 39.3286C98.241 39.1386 97.859 39.2106 97.659 39.4896C97.314 39.9736 96.876 40.6846 97.034 40.9996C97.201 41.3326 98.479 42.5556 99.313 43.3336C99.65 43.6476 100.199 43.5076 100.344 43.0706L100.882 41.4576C100.972 41.1866 100.87 40.8896 100.633 40.7316L98.527 39.3286Z" fill="#F9DA49"/>
<path d="M107.108 45.2536C107.48 45.0926 107.912 45.1646 108.209 45.4396C108.625 45.8246 109.113 46.3576 108.927 46.5996C108.725 46.8616 107.201 47.8106 106.175 48.4346C105.666 48.7436 105.005 48.5556 104.733 48.0256L104.5 47.5726C104.23 47.0456 104.461 46.4006 105.004 46.1646L107.108 45.2536Z" fill="#F9DA49"/>
<path d="M106.43 35.9996H104.724C103.987 35.9996 103.547 35.1786 103.956 34.5646L104.802 33.2956C104.929 33.1046 105.123 32.9676 105.346 32.9126L107.054 32.4856C107.819 32.2946 108.456 33.0886 108.103 33.7936L107.255 35.4896C107.099 35.8026 106.78 35.9996 106.43 35.9996Z" fill="#F9DA49"/>
</g>
<defs>
<clipPath id="clip0_7:41">
<rect width="48.584" height="48.584" fill="white" transform="translate(60)"/>
</clipPath>
</defs>
</svg>
